<svg id="Слой_1" data-name="Слой 1" xmlns="http://www.w3.org/2000/svg" viewBox="0 0 2710.58 1622.56"><defs><style>.cls-1{fill:#ebf3fa;}.cls-2{fill:#a8d29f;}.cls-3{fill:#82b378;}.cls-4{fill:#ed7d2b;}.cls-5{fill:#ffb93e;}.cls-6{fill:#ffa412;}.cls-7{fill:#d1f2c9;}.cls-8{fill:#95c38b;}.cls-9{fill:#2b478b;}.cls-10{fill:#699dee;}.cls-11{fill:#92beff;}.cls-12{fill:#fcecdb;}.cls-13{fill:#efcbab;}.cls-14{fill:#ffb583;}.cls-15{fill:#ea6c2d;}.cls-16{fill:#233862;}.cls-17{fill:#ffb07b;}.cls-18{fill:#2a4e96;}.cls-19{fill:#1e3d70;}.cls-20{fill:#ea8e50;}.cls-21{fill:#2c3a64;}.cls-22{fill:#ffb27d;}.cls-23{fill:#f99746;}.cls-24{fill:#ed985f;}.cls-25{fill:#f46c0f;}.cls-26{fill:#ff9045;}.cls-27{fill:#ffda9f;}.cls-28{fill:#2e3552;}</style></defs><path class="cls-1" d="M310.26,1774.82s-315.41-338.64-53.34-705.28c232.52-325.3,503.62-303.06,702.52-171,84.72,56.22,329,6.92,536.84-324.08,283.49-451.41,1266.18-177.63,1087,516.87-86.71,336.09,263.89,348.3,85.25,684.25Z" transform="translate(-142.42 -155.67)"/><path class="cls-2" d="M1598.67,736.81c-.1,1.76-.16,2.68-.16,2.68l-.85-2.61c-4.6-14.18-27.06-84.15-47.51-162.07C1521.87,467,1497.47,344,1529.58,332.66c60.84-21.55,72.06,150.69,72.23,277.78C1601.91,673.05,1599.32,724.69,1598.67,736.81Z" transform="translate(-142.42 -155.67)"/><path class="cls-2" d="M1658.2,596.84c-22,48.77-41.06,89.8-52,114.37-4.76,10.72-8,18.29-9.23,22,1.07-6.07,3.94-22.36,8-45.54v0c6.15-34.73,15.08-84.9,24.87-139.37,23.77-132.41,52.7-290.16,59.45-312.72,11.92-39.79,66.84-124.48,103.8-50.79C1817.12,232.68,1724.45,449.85,1658.2,596.84Z" transform="translate(-142.42 -155.67)"/><path class="cls-2" d="M1662.63,666.42c-22.72,24-41.82,43.43-52.49,54.17-5.83,5.89-9.14,9.17-9.14,9.17s5.82-12.4,15.73-32.21c9.36-18.71,22.37-44,37.58-71.73C1704.14,535,1777.5,418.64,1823,425.36,1874.91,433,1745,579.49,1662.63,666.42Z" transform="translate(-142.42 -155.67)"/><path class="cls-3" d="M1598.67,736.81c-.32,0-.66,0-1,.07-4.6-14.18-27.06-84.15-47.51-162.07,9.54,14.29,26.78,33.44,51.66,35.63C1601.91,673.05,1599.32,724.69,1598.67,736.81Z" transform="translate(-142.42 -155.67)"/><path class="cls-3" d="M1658.2,596.84c-22,48.77-41.06,89.8-52,114.37a199.71,199.71,0,0,1-1.2-23.51v0c6.15-34.73,15.08-84.9,24.87-139.37C1633.68,567.32,1641.65,588.38,1658.2,596.84Z" transform="translate(-142.42 -155.67)"/><path class="cls-3" d="M1662.63,666.42c-22.72,24-41.82,43.43-52.49,54.17,1-6.17,3.43-14.19,6.59-23,9.36-18.71,22.37-44,37.58-71.73C1654.66,637.43,1656.31,654.73,1662.63,666.42Z" transform="translate(-142.42 -155.67)"/><path class="cls-2" d="M1597,733.27c-.3,1.7-.46,2.59-.46,2.59C1596.27,735.74,1596.42,734.86,1597,733.27Z" transform="translate(-142.42 -155.67)"/><path class="cls-4" d="M1627.46,908.34c-38.12,108-85.58,225.73-85.58,225.73l-107.22-32.13s12.55-80,31-169c21.49-103.76,33.76-208.46,77.85-235.7a83.26,83.26,0,0,1,38-11.91,93,93,0,0,1,19.19.56c1.5.2,3,.43,4.46.68a102,102,0,0,1,11,2.6q2.08.59,4.14,1.32a104.06,104.06,0,0,1,13.71,5.77c18.56,9.44,33.51,23.64,39.37,39C1691,781.42,1656.27,826.76,1627.46,908.34Z" transform="translate(-142.42 -155.67)"/><path class="cls-5" d="M1575.07,1040.63c-28.17,85.45-36.54,179.22-25,279.27a55.92,55.92,0,0,0,44.89,48.34c16.55-.09,49.2-30.17,67.87-68.56a144.33,144.33,0,0,0,11.61-33.11c18.72-88.8,53.38-195.73,96.38-250.38,44-55.89,103.2-122.69,184.64-168.64h0c7.86-4.5,192.64-139.06,192.64-139.06,18.39-19.44-3.39-41.22-3.39-41.22s-17.55,15.39-71.09,46.22-147.54-5.3-147.58-5.31a89.67,89.67,0,0,0-83.48,5,662.44,662.44,0,0,0-143.56,117.52C1642.31,892.64,1600.59,963.27,1575.07,1040.63Z" transform="translate(-142.42 -155.67)"/><path class="cls-6" d="M1674.47,1266.57c18.72-88.8,53.38-195.73,96.38-250.38,44-55.89,103.2-122.69,184.64-168.64h0c1.42-1,56.51-41.66-4.55-78.45-59.76-36-303.69,232.21-288.11,530.59A144.33,144.33,0,0,0,1674.47,1266.57Z" transform="translate(-142.42 -155.67)"/><path class="cls-2" d="M1450.81,919.27a198.83,198.83,0,0,1-28.37,34.87c-42.35,41.72-108.83,72.66-194.41,71.86,0,0-35.93-34.25-53.35-77.83l0,0c-12.08-30.23-20.9-74.74,0-107.78,13.46-21.28,30.77-31.36,48.32-36.67,29.81-9.07,60.29-4.39,73.61-17.67,13.13-13.09,31.82-24.39,52.35-30.9,3.35-1.07,6.75-2,10.2-2.79h0c1.43-.34,2.85-.65,4.29-.93a.15.15,0,0,1,.09,0c31.64-6.18,65.44-.12,89,28.09a101.06,101.06,0,0,1,14.61,23.94C1482.17,837.27,1475.7,880.19,1450.81,919.27Z" transform="translate(-142.42 -155.67)"/><path class="cls-7" d="M1201.9,835.47s-28.24,22.17-19.59,46.7,31,13.2,38-3.79S1220.47,827.23,1201.9,835.47Z" transform="translate(-142.42 -155.67)"/><path class="cls-8" d="M1452.5,779.47a101.34,101.34,0,0,1,14.61,23.95c15.06,33.85,35.73,123.62,10.85,162.71l-33.38,30.53c-42.35,41.72-131,30.14-216.55,29.33,0,0-35.92-34.25-53.35-77.83h0S1280.56,990,1380.26,902.6C1425.55,862.88,1444.88,817.35,1452.5,779.47Z" transform="translate(-142.42 -155.67)"/><path class="cls-2" d="M1291,734.83c-17.48-10.41-35.16,4.21-55.68,12.23s-60,7.88-60,7.88a286.81,286.81,0,0,1,42.88-46.63C1244.83,685.08,1291,734.83,1291,734.83Z" transform="translate(-142.42 -155.67)"/><path class="cls-3" d="M1291,734.83c-16.42-13.48-46.8-21.21-61.62-15.15s-54.1,35.26-54.1,35.26a286.81,286.81,0,0,1,42.88-46.63C1244.83,685.08,1291,734.83,1291,734.83Z" transform="translate(-142.42 -155.67)"/><path class="cls-8" d="M1296.61,786c13.13-13.09,31.82-24.39,52.35-30.9-34.9,13.09-54.15,57.33-67.4,52.2-14.2-5.51-56.93-3.71-58.56-3.63C1252.81,794.63,1283.29,799.31,1296.61,786Z" transform="translate(-142.42 -155.67)"/><path class="cls-8" d="M1363.46,751.41c-1.1.31-2.52.62-4.29.93C1360.6,752,1362,751.69,1363.46,751.41Z" transform="translate(-142.42 -155.67)"/><path class="cls-3" d="M1284,806.44h0c-11.19-24.73-5.14-55.4,1.9-76.78,5.61-17,16.37-40,21.65-50.91a2.85,2.85,0,0,1,5.27.36l2.13,6.45a23.25,23.25,0,0,1-2.17,19.33c-10.82,17.89-32.55,59.69-22.76,94.1C1291.15,802.87,1286,810.87,1284,806.44Z" transform="translate(-142.42 -155.67)"/><path class="cls-9" d="M1514.42,917.92l-3.48-1.4c15.41-22.94,39.33-38.67,58.16-45.94a153.67,153.67,0,0,1,34.4-9.08,3.41,3.41,0,0,1,3,1.17l2.92,3.4a2.87,2.87,0,0,1-1.75,4.69C1590.86,873.17,1537.71,883.28,1514.42,917.92Z" transform="translate(-142.42 -155.67)"/><path class="cls-10" d="M1448.85,924.47c17.67-44.16,42.55-34.2,73.25-21.91S1577.67,924.8,1560,969c-12.67,31.65-47.82,47.35-78.51,35.06S1436.18,956.12,1448.85,924.47Z" transform="translate(-142.42 -155.67)"/><path class="cls-11" d="M1467.46,915.34c1.11-7.91,13.85-16.24,21.77-15.14s11.59,9.95,10.49,17.87-12,14.72-19.93,13.61A14.48,14.48,0,0,1,1467.46,915.34Z" transform="translate(-142.42 -155.67)"/><path class="cls-12" d="M1874.93,935.59l94.79,675.25c11.76,83.75-53.27,158.55-137.84,158.55H1689.06c-72.12,0-128.26-62.63-120.42-134.32l80.22-628.13Z" transform="translate(-142.42 -155.67)"/><path class="cls-12" d="M1377.11,935.59s229.76,78.34,497.82,0l-79,835.93H1295.73Z" transform="translate(-142.42 -155.67)"/><path class="cls-13" d="M1377.11,935.59l94.79,677c11.76,84-53.27,159-137.84,159H1191.24c-72.12,0-128.26-62.78-120.42-134.66l67.9-701.27s33.45,6.53,114.83,6.53C1334.14,942.12,1377.11,935.59,1377.11,935.59Z" transform="translate(-142.42 -155.67)"/><path class="cls-4" d="M1802.25,1010.87a17.8,17.8,0,1,0-26.72,15.38c7.55,59.91-4.36,108.87-34.06,138.87-27,27.26-68,37.37-118.45,29.22-44.39-7.16-73.6-56.28-90.29-96.22-12-28.73-19.42-57-23.23-73.82a17.79,17.79,0,1,0-20.45,2c9.57,43.91,45,174.26,130.73,188.1a226.06,226.06,0,0,0,35.92,3c41.11,0,75.34-12.88,100.22-38,34.06-34.39,48-89,39.9-154.86A17.77,17.77,0,0,0,1802.25,1010.87Z" transform="translate(-142.42 -155.67)"/><path class="cls-4" d="M2104.74,1190.44a176,176,0,0,0,38.84,8c52.23,4.94,115-11,173.06-59.21,0,0,5.49-43.45-6.88-83h0c-8.59-27.42-27.36-62.79-60.07-73.75-21.07-7.06-38.53-4.3-53.49,1.84-25.45,10.42-43.7,30.6-60.21,28.94-16.28-1.63-35.37,1.06-53,8-2.89,1.13-5.75,2.38-8.54,3.77h0c-1.17.56-2.31,1.14-3.45,1.75l-.07,0c-25.09,13.41-44.84,36.4-45.2,68.8a88.71,88.71,0,0,0,3.35,24.52C2037.57,1151.81,2065.93,1177.57,2104.74,1190.44Z" transform="translate(-142.42 -155.67)"/><path class="cls-14" d="M2228.32,994.36s31.68-.57,39.43,21-13.83,26.3-28.08,18.57S2211,999.07,2228.32,994.36Z" transform="translate(-142.42 -155.67)"/><path class="cls-15" d="M2025.66,1095.73a89.27,89.27,0,0,0,3.35,24.54c8.56,31.55,44.46,104.49,83.27,117.36,0,0,77,35.36,121,18.91,49.14-18.37,79.39-57.2,83.37-117.27,0,0,5.49-43.45-6.88-83h0s-49.08,87.66-166,83.42C2090.58,1137.77,2052,1117.4,2025.66,1095.73Z" transform="translate(-142.42 -155.67)"/><path class="cls-2" d="M2111.24,975.19c6.15-16.86,26.4-16.72,44.91-22.67s45.46-28.07,45.46-28.07a252.59,252.59,0,0,0-55.32-8C2115.12,915.4,2111.24,975.19,2111.24,975.19Z" transform="translate(-142.42 -155.67)"/><path class="cls-3" d="M2111.24,975.19c3.72-18.38,20.19-40.6,33.71-44.71s56.66-6,56.66-6a252.59,252.59,0,0,0-55.32-8C2115.12,915.4,2111.24,975.19,2111.24,975.19Z" transform="translate(-142.42 -155.67)"/><path class="cls-15" d="M2136,1013.32c-16.28-1.63-35.37,1.06-53,8,31.17-10.5,69,9,75.2-1.86,6.65-11.69,36.89-34.27,38-35.13C2170.73,994.8,2152.48,1015,2136,1013.32Z" transform="translate(-142.42 -155.67)"/><path class="cls-8" d="M2070.93,1026.9c.93-.4,2.07-1,3.45-1.75C2073.21,1025.71,2072.07,1026.29,2070.93,1026.9Z" transform="translate(-142.42 -155.67)"/><path class="cls-3" d="M2156,1020.28h0c-6.13-23.16-27.37-40.78-44.1-51.48-13.33-8.51-33.49-18.23-43.19-22.76a2.51,2.51,0,0,0-3.4,3.19l2.13,5.59a20.52,20.52,0,0,0,12.27,12c17.37,6.2,55.53,22.69,68,51.69C2149.08,1021.8,2157.06,1024.42,2156,1020.28Z" transform="translate(-142.42 -155.67)"/><path class="cls-16" d="M2023.43,1710.83s-23.28,17.45-59,8.23c0,0-28.77-6.56-35.08,7.79,0,0,44.12,22.41,55.29,28.54,8.41,4.62,17.19,11.92,23.4,17.55a11.57,11.57,0,0,0,16.75-1.29c1.94-2.39,4.16-5.23,6.6-8.53,6.8-9.21,22.65-39,22.65-39Z" transform="translate(-142.42 -155.67)"/><path class="cls-9" d="M2009.76,1702s14.18,32.69,46.91,26.68c0,0,66.78-55.15,112.59-112.44,14.88-18.61,27.55-37.45,35-54.68,30.38-70.33,112.37-175.23,164.5-228.4L2238.33,1286s-41.78,84-97.36,187.26C2100.91,1547.58,2053.69,1631.92,2009.76,1702Z" transform="translate(-142.42 -155.67)"/><path class="cls-16" d="M2141,1473.21l28.29,143c14.88-18.61,27.55-37.45,35-54.68,30.38-70.33,112.37-175.23,164.5-228.4L2238.33,1286S2196.55,1370,2141,1473.21Z" transform="translate(-142.42 -155.67)"/><path class="cls-16" d="M2247.58,1729.8s1.42,26.09-30.21,29.57c0,0-18.07.1-18.12,16.7l91.91.29s2.67-6.7,3.32-21c.5-11-10.68-39.81-10.68-39.81Z" transform="translate(-142.42 -155.67)"/><path class="cls-9" d="M2281.11,1286s-58.11,63.84-95,178.86c-20.07,62.59,36.78,219.93,47.86,274.6,0,0,38.14,3.23,64.21-6.85,0,0,2-112.91-13.27-199.94-8.53-48.7,76.51-104.16,113.66-192.17,25.28-59.87-5.47-58.85-43.26-60.29Z" transform="translate(-142.42 -155.67)"/><path class="cls-17" d="M2348.18,1001.11c32.32,18.25,98.51,1.42,98.51,1.42s-26.88-30.73-14.67-80.21l-25.38,12.89-27.26,13.84a224,224,0,0,0-3,24.44c-.31,4-.59,8.56-.79,13.49A84.65,84.65,0,0,0,2348.18,1001.11Z" transform="translate(-142.42 -155.67)"/><path class="cls-18" d="M2229.64,1282.65c0,5.68,6.55,8.4,7.94,8.68,13,2.38,49.44,16.54,82.24,19.79,27.61,2.89,53.25.15,81.42-5.51,3.73-.75,12.48-3.11,13.1-6.68.78-3.91,108.65-219.91,24.8-312.69-2-2.18-18.53,1.74-33.66,5.34a62.23,62.23,0,0,1-38.26-3.13L2353,995.92c-17.44,9.71-50.42,44.23-54.28,71.31-2,13.77-9.84,24-12.12,36.08q-1.26,6.74-2.59,13.13-2.58,12.55-5.31,23.9c-4.93,20.48-10.14,38.12-15.25,53.35-5.44,16.17-10.78,29.63-15.54,40.88-6.19,14.59-11.41,25.5-14.67,33.85C2231,1274.3,2229.64,1278.91,2229.64,1282.65Z" transform="translate(-142.42 -155.67)"/><path class="cls-19" d="M2233.27,1268.42c152.27-71.74,205-209.5,205-209.5s-123.71,45.64-154.23,57.52q-2.58,12.55-5.31,23.9c-4.93,20.48-10.14,38.12-15.25,53.35-5.44,16.17-10.78,29.63-15.54,40.88C2241.75,1249.16,2236.53,1260.07,2233.27,1268.42Z" transform="translate(-142.42 -155.67)"/><path class="cls-17" d="M2130,1230.51s-21.17-8.68-26-8-18.32-2.67-17.56,1.74c.53,3,17.9,6.25,17.9,6.25s-19.4-4.37-17.9.17c1,3.12,5.15,15.55,11.57,19.61,7.68,4.86,21.57,2.51,37.86.16C2165.74,1246.12,2130,1230.51,2130,1230.51Z" transform="translate(-142.42 -155.67)"/><path class="cls-18" d="M2133.35,1245.45c-4.87-12.69-7.09-18.44-7.09-18.44s99.43-81,109.56-88c6.9-4.74,75.63-56.11,109.14-96.15a70.1,70.1,0,0,1,68.17-23.62l20.87,4.37c25.21,5.29,33.39,37.19,13.84,53.95-55.06,47.2-147.93,102-165.24,113.34-43,28.27-138.06,67.88-138.06,67.88S2137.17,1255.42,2133.35,1245.45Z" transform="translate(-142.42 -155.67)"/><path class="cls-20" d="M2376.39,973.49c31.79,1.78,52.46-24.46,52.46-24.46s-14.37-8-22.21-13.82l-27.26,13.84A224,224,0,0,0,2376.39,973.49Z" transform="translate(-142.42 -155.67)"/><path class="cls-17" d="M2362.84,940.85s48.17,34.57,69.23,4.24,41.47-46.29,11.61-69.64-43.94-16-53.43-7.56S2350.86,931.08,2362.84,940.85Z" transform="translate(-142.42 -155.67)"/><path class="cls-16" d="M2385.16,840.5a77.23,77.23,0,0,1,5.61-19.86s3,12.52,25.91,10.79,59.15,2.25,71.24,28.32q1.14,2.49,2.06,5.12c2.19-5.78,2.72-14.44,2.72-14.44,4.34,11.22,0,25.26,0,25.26h0c.07.41.12.82.18,1.23,5.05,4.27,9.29,17.55,9.29,17.55-1.52-3.7-5.24-6.12-8.55-7.61.1,20.29-8.13,40.13-22.57,46-21.12,8.64-20.95,2.05-42.19,16.14,0,0-5.7-7.07-1.81-11.82s18.56-11.66,10.36-18.57-11.23.87-14.25-3.88,12.09-18.57-7.34-31.52S2383.43,852.15,2385.16,840.5Z" transform="translate(-142.42 -155.67)"/><path class="cls-21" d="M964.29,270c-.08-2.28-1.85-26.91-39.36-28.2,0,0,18.45,2.2,21.63,10.31,0,0-12.56-10-22.79-6.8s-16.23,21.15-16.29,27,5.62,24.9,12.11,26.51a19.8,19.8,0,0,0,7.86,0,87.8,87.8,0,0,0-5,9c-15,30.72.46,60.75,13.14,57.44,8.12-2.13,10.42,11.74,10.42,11.74l79-63.93S995.94,253.11,964.29,270Z" transform="translate(-142.42 -155.67)"/><path class="cls-9" d="M991.79,1175.22,975,1181.47s-72.84-101-81.81-189.93c-1.6-15.87-1.07-31.25,2.39-45.44,0,0-.71-4.07-2-11.26-.58-3.35-1.29-7.39-2.1-12-2.37-13.57-5.63-32.14-9.35-53.28-8.57-48.65-19.68-110.84-28.3-156.56l4.52-1.45,48.89-15.78,10.11-32.09,36.41-9.59S962,670,969.22,745.14c1.34,9.86,2.56,20.73,3.48,32.52a643.54,643.54,0,0,1-3.47,131.66q-2.51,19.59-6.39,40.4c-1.92,10.16-2.21,24-1.4,39.9C965.11,1062.29,991.79,1175.22,991.79,1175.22Z" transform="translate(-142.42 -155.67)"/><path class="cls-16" d="M972.7,777.66,893.64,934.84c-.58-3.35-1.29-7.39-2.1-12-2.37-13.57-5.63-32.14-9.35-53.28-8.57-48.65-19.68-110.84-28.3-156.56l4.52-1.45,48.89-15.78,10.11-32.09,36.41-9.59S962,670,969.22,745.14C970.56,755,971.78,765.87,972.7,777.66Z" transform="translate(-142.42 -155.67)"/><path class="cls-9" d="M937.92,674.24l-1.83-15.69c-30.67,8.14-112.59-22.76-112.59-22.76s-29.71,26.11-25.81,88.7c1.91,30.55,5.38,160.37,9,198.78,1.32,13.93,2.47,23.83,2.94,27.79a.08.08,0,0,1,0,0,5.46,5.46,0,0,1-.9,3.4,181,181,0,0,0-13.4,28.19c-35.65,95,5.49,212,5.49,212l10.67-4.3s23.41-130.19,42.43-187.7c3.23-9.75,6.33-17.42,9.16-22,8.27-13.35,15.95-35.16,22.92-61.09,13.16-49,23.76-112.84,30.81-162.08C917.8,757.53,937.92,674.24,937.92,674.24Z" transform="translate(-142.42 -155.67)"/><path class="cls-22" d="M1179.49,654.19c-6.6,5.84-24.12-14.21-26.53-16.88a1.89,1.89,0,0,0-.25-.38l5.33-14.85s23-.88,26.78,2.92S1186.72,648,1179.49,654.19Z" transform="translate(-142.42 -155.67)"/><path class="cls-22" d="M1158,622.08l-2.29,15.36s-1,0-2.79-.13c-5.59-.38-19.17-1.14-34.52-2.79-23.1-2.28-50.52-6.35-61.43-13.07-16.63-10.15-43.92-41.25-61.69-72.35a20,20,0,0,1-1.27-2.28c-9.26-16.5-15.74-32.87-16.24-46A65.63,65.63,0,0,1,980,480.06a53.19,53.19,0,0,1,9.4-18.79,9.17,9.17,0,0,1,1.77-2.15,43.81,43.81,0,0,1,12.06-10.28c3-1.28,6.35.25,9.77,3.93v.13a58.05,58.05,0,0,1,8.76,12.94c.13.13.26.26.26.38.63,1.15,1.27,2.41,2,3.81a3.08,3.08,0,0,1,.5.89q2.1,4.38,4.19,9.14c15.61,34,32.24,85.54,46.08,100.9,6,6.6,33.25,19.55,55,29.19C1145.34,617,1158,622.08,1158,622.08Z" transform="translate(-142.42 -155.67)"/><path class="cls-22" d="M996.5,483.88c-9.63,4.46-21.26,7.5-35.32,8.27-52.71,2.88-64.68-43.33-66.86-74a44.37,44.37,0,0,1,18.09-2.29c3.74.21,7.64.59,10.86,1,6.45-3.37,18-19.73,24.73-47.1l2.27,1.05,38,17.88s-4,12.38-7,24.23c-2.32,9.27-4,18.22-2.6,20.73,3,1.22,4.79,2,4.79,2a.06.06,0,0,0,0,0A262.13,262.13,0,0,1,996.5,483.88Z" transform="translate(-142.42 -155.67)"/><path class="cls-23" d="M1009.68,518.46c-.4,1.06-.83,2.08-1.31,3.14C995,550.35,970.3,669.46,970.3,669.46c3.52,21.42-160.94-4.2-161.37-23.7-5.79-20.67,20.56-53.89,35.41-70.56a47.23,47.23,0,0,0,11.72-26.37c2.92-27.64,1.81-53.54,2.06-69.29h0c2.9-2.15,5.71-4.13,8.32-6a74.76,74.76,0,0,0,10.14-8.41c2.86-3,4.65-6.09,4.86-9.57a51.4,51.4,0,0,0-.21-8c-.12-1.28-.29-2.55-.48-3.82a108.57,108.57,0,0,0-7.64-25.51c14.15-5.73,39.3-2.32,39.3-2.32s0,1.4,0,3.69c-.08,9.19,0,32.78,2.94,37.24,3.69,5.56,71.07,29.92,74.63,22.37s-6.1-42.18-6.45-43.5a.06.06,0,0,1,0,0c22.57,8.86,30.63,16.3,30.63,16.3C1000.51,460.73,1020.2,490.57,1009.68,518.46Z" transform="translate(-142.42 -155.67)"/><path class="cls-24" d="M988.31,388.69s-4,12.37-7,24.22c-22.23-6.2-29-29.57-31-42.1Z" transform="translate(-142.42 -155.67)"/><path class="cls-22" d="M993,401.79s-53.19-12.31-45-45.32,6.82-56.83,41.13-50.37,37.76,20.69,37.71,32.37S1007,404.14,993,401.79Z" transform="translate(-142.42 -155.67)"/><path class="cls-21" d="M1029.8,319.73c-5.72-12-12.45-11.32-16.66-9.2-25-23.13-49.51-4.24-49.51-4.24-9.43,22.8-29.88,32.12-29.88,32.12s8.17,8.36,31.85,8.18c7.24-.06,14.51-3.38,21.13-8A127.45,127.45,0,0,1,959,359.32c29.65-5.67,49.53-40,51.57-43.64,2.51,3.71,7.32,11.6,7.72,18.27.55,9.06-2.57,26.65,2.62,27.32C1020.9,361.27,1038.38,337.67,1029.8,319.73Z" transform="translate(-142.42 -155.67)"/><path class="cls-23" d="M1014.11,451.91s12.81,22.34,14.72,28.09c0,0-16.61-.64-23.31,12.14C1005.52,492.14,1003.91,454.92,1014.11,451.91Z" transform="translate(-142.42 -155.67)"/><path class="cls-4" d="M926,629.44c-32.44-.34-59.91-34-76.69-60.94a46.83,46.83,0,0,0,6.73-19.67c2.92-27.64,1.81-53.54,2.06-69.29h0c2.9-2.15,5.71-4.13,8.32-6a74.76,74.76,0,0,0,10.14-8.41C903.14,510,970,629.91,926,629.44Z" transform="translate(-142.42 -155.67)"/><path class="cls-16" d="M862.9,1203.38H778.43s-2-12.88,2.39-22.64c4.22-9.37,10.85-13.63,9.26-25,5.37,5.52,14.12,11.71,26.33,10.07,1.5,2.43,9.66,15.41,14.66,19C836.59,1188.81,861.2,1187.39,862.9,1203.38Z" transform="translate(-142.42 -155.67)"/><path class="cls-16" d="M1044.27,1203.38H959.8s-3.16-13.47,2.39-22.64c4.91-8.11,3-12.73-.61-19.45a32.67,32.67,0,0,0,14.23,2.68c4.21-.24,8.66-2.15,12.56-4.41,3.63,4.14,19.2,21.78,24.07,25.28C1018,1188.81,1042.57,1187.39,1044.27,1203.38Z" transform="translate(-142.42 -155.67)"/><path class="cls-9" d="M1128.71,600.17l-4.14-1c13.73-28.22,38.15-49.67,58.18-60.82A173.35,173.35,0,0,1,1220,522.72a3.87,3.87,0,0,1,3.6.83l3.82,3.37a3.27,3.27,0,0,1-1.24,5.55C1207.63,537.82,1149.44,557.55,1128.71,600.17Z" transform="translate(-142.42 -155.67)"/><path class="cls-25" d="M1056,617.85c12.93-52.44,42.48-45.15,78.93-36.16s66,16.28,53.06,68.72c-9.27,37.58-46.33,60.76-82.78,51.77S1046.72,655.44,1056,617.85Z" transform="translate(-142.42 -155.67)"/><path class="cls-26" d="M1075.49,604.66c0-9.07,13-20.45,22.1-20.45s14.6,9.37,14.6,18.44-11.19,18.44-20.26,18.44A16.43,16.43,0,0,1,1075.49,604.66Z" transform="translate(-142.42 -155.67)"/><path class="cls-22" d="M1048.63,647.09l-4.44,16.24s-5.59-1-14.47-2.66c-2.67-.51-4.19-.89-4.19-.89-7.11-1.4-15.61-3.3-24.88-5.33h-.12c-15.87-3.81-33.64-8.38-48.62-13.46-10.53-3.68-19.67-7.61-25.89-11.54a16.36,16.36,0,0,1-1.77-1.28c-14.85-10.78-32.5-42.51-46.2-76.53-1.91-4.69-3.68-9.39-5.46-14a347.25,347.25,0,0,1-14.47-48.23,137.42,137.42,0,0,1-3.43-23,57.07,57.07,0,0,1-.12-6.48c.25-36.8,18.53-41.88,18.53-41.88.38-.13.76-.25,1.27-.38,3.17-.51,6.47,1.65,9.9,5.84,4.31,5.2,8.88,13.71,13.58,24,7.23,16.38,14.85,37.58,21.95,58.64,3.94,11.55,7.75,23.1,11.55,33.76,2.16,6.48,4.32,12.57,6.35,18.16,3.93,10.66,7.49,19.29,10.66,24.74,2,3.56,7.87,8.51,15.61,14.09,13.46,9.78,33.13,21.58,50.26,31.22,7.11,4.07,13.84,7.75,19.42,10.79C1042.66,643.91,1048.63,647.09,1048.63,647.09Z" transform="translate(-142.42 -155.67)"/><path class="cls-23" d="M897.8,447.62C873.37,440.88,854.52,460,854.52,460c.31-36.75,18.6-41.78,18.6-41.78C880.48,415.13,889,427.88,897.8,447.62Z" transform="translate(-142.42 -155.67)"/><path class="cls-22" d="M1048.63,647.09s8,.17,12.48-2.58,17.28-6.51,23-5.89c0,0,2.13.88,1.37,2.88s-10.14,3.63-10.14,7.39c0,0,11.77-.38,15.28-1.88s17,2,19.65,3.51S1093.16,664,1084.4,668.8s-40.21-5.47-40.21-5.47Z" transform="translate(-142.42 -155.67)"/><path class="cls-12" d="M1042.66,1772.4a6.2,6.2,0,0,1-5.83-5.55l-28.58-187.93-41.11-270.29-11.5-75.58,29.28-1L990,1276l35.67,308.33,21.15,182.76C1047.15,1769.88,1045.2,1772.4,1042.66,1772.4Z" transform="translate(-142.42 -155.67)"/><path class="cls-12" d="M743,1233.05l-13,85.66h0l-36,236.61-32.18,211.52a6.16,6.16,0,0,1-5.82,5.55c-2.54,0-4.5-2.52-4.16-5.35l27.75-239.79,29.67-256.48,4.48-38.7Z" transform="translate(-142.42 -155.67)"/><path class="cls-13" d="M730,1318.71c1.71-36.81-20.73-47.93-20.73-47.93l4.48-38.7,29.29,1Z" transform="translate(-142.42 -155.67)"/><path class="cls-13" d="M990,1276c-19,9.71-22.87,32.67-22.87,32.67l-11.5-75.58,29.28-1Z" transform="translate(-142.42 -155.67)"/><rect class="cls-12" x="471.56" y="1047.71" width="470.69" height="29.67" rx="12.38"/><path class="cls-3" d="M2523.33,1771.81H2415.1c-5.8-4.92,4-16.09,14.27-16.84,4.45-.33,10.08.6,16.52,2,1.49-19.78,10-108.71,42-105.13,36,4,0,39.16-10.19,60-7.54,15.42-15.5,37.53-19.14,48,2.92.63,6,1.25,9.05,1.82,4.77-14.67,22.55-64,45.15-61.13,26.54,3.37,15.87,23.15-2.94,34.89-13.8,8.64-30.74,20.91-38.79,26.84a115.08,115.08,0,0,0,21.16,1.69C2510.77,1763.41,2519.82,1768.88,2523.33,1771.81Z" transform="translate(-142.42 -155.67)"/><path class="cls-3" d="M438.8,1771.81H547c5.79-4.92-4-16.09-14.27-16.84-4.45-.33-10.08.6-16.52,2-1.49-19.78-10-108.71-42.05-105.13-36,4,0,39.16,10.19,60,7.55,15.42,15.51,37.53,19.15,48-2.93.63-6,1.25-9,1.82-4.78-14.67-22.55-64-45.15-61.13-26.54,3.37-15.87,23.15,2.94,34.89,13.79,8.64,30.74,20.91,38.79,26.84a115.08,115.08,0,0,1-21.16,1.69C451.36,1763.41,442.31,1768.88,438.8,1771.81Z" transform="translate(-142.42 -155.67)"/><path class="cls-5" d="M1437.08,1607.19c4.64,23.28,10.33,43.43,16.94,60.85,51.24,135,158.06,105.91,262.33,105.91,117.72,0,117.49-78.85,117.49-185.44s-65.21-191.28-182.92-191.28S1416.27,1502.66,1437.08,1607.19Z" transform="translate(-142.42 -155.67)"/><path class="cls-6" d="M1905.48,1623.16c.74-108-77.78-194.74-182.62-223.53-107-29.39-195.82,42.49-195.65,147.22.17,105.2,90.85,209.4,199.36,223.4C1831.52,1783.8,1904.77,1728.19,1905.48,1623.16Z" transform="translate(-142.42 -155.67)"/><path class="cls-27" d="M1896.06,1620.55c.7-102.6-73.91-185-173.52-212.39-101.65-27.92-186.06,40.37-185.91,139.88.16,100,86.33,199,189.43,212.28C1825.78,1773.19,1895.38,1720.35,1896.06,1620.55Z" transform="translate(-142.42 -155.67)"/><path class="cls-5" d="M1714.65,1560.46l29.15-109.72c2.17-8.16-4.19-17.79-13-19.71a230.2,230.2,0,0,0-85.7-2.84c-8.23,1.27-11.52,10.5-6.67,18.68l67.27,113.4C1708.06,1564.33,1713.59,1564.45,1714.65,1560.46Z" transform="translate(-142.42 -155.67)"/><path class="cls-5" d="M1739.9,1594.14l109.31,68.32c8.13,5.08,17.42,1.94,19-6.46a219.25,219.25,0,0,0,3.94-40.58,276.33,276.33,0,0,0-4-46.24c-1.54-8.88-10.76-15.48-18.67-13.38L1739.78,1585C1735.86,1586,1735.92,1591.66,1739.9,1594.14Z" transform="translate(-142.42 -155.67)"/><path class="cls-5" d="M1733.15,1573.83l108.11-28.76c8-2.14,10.58-11.86,5.18-19.93a309.75,309.75,0,0,0-28.1-36.05,349.76,349.76,0,0,0-36.48-34.52c-7.4-6-17.14-4.29-19.73,3.53l-35.84,108.38C1725,1570.36,1729.23,1574.88,1733.15,1573.83Z" transform="translate(-142.42 -155.67)"/><path class="cls-5" d="M1722.75,1604.3,1756.18,1725c2.49,9,12.23,14.87,20,12.06a181.88,181.88,0,0,0,34.37-16.65,196,196,0,0,0,32.46-25.76c5.64-5.56,3.46-16.15-4.39-21.45l-108.87-73.48C1725.81,1597.11,1721.54,1599.91,1722.75,1604.3Z" transform="translate(-142.42 -155.67)"/><path class="cls-5" d="M1696.21,1563.76l-73-108.16c-5.44-8-16-10.25-21.57-4.48a176.24,176.24,0,0,0-23.4,29.77,210,210,0,0,0-18.42,38.17c-2.8,7.71,3,17.49,11.65,19.81l120.47,32.1C1696.22,1572.12,1698.87,1567.69,1696.21,1563.76Z" transform="translate(-142.42 -155.67)"/><path class="cls-5" d="M1691.88,1580.86l-119-20.69c-8.85-1.54-15.26,5.57-13.11,14.58a277.24,277.24,0,0,0,13.54,41.9,333.65,333.65,0,0,0,22.48,44.08c5,8.14,15.33,10.72,21,5.23l78.93-76.08C1698.59,1587.15,1696.2,1581.61,1691.88,1580.86Z" transform="translate(-142.42 -155.67)"/><path class="cls-5" d="M1702.57,1599.31l-64.17,87.77c-4.77,6.53-1.4,17.15,6.94,21.77a281.14,281.14,0,0,0,40.16,18.39A285.64,285.64,0,0,0,1731,1739.5c8.71,1.58,15-5.53,12.64-14.38l-32.06-122.68C1710.44,1598,1704.9,1596.13,1702.57,1599.31Z" transform="translate(-142.42 -155.67)"/><path class="cls-21" d="M1440.39,1049.94c.48-2-42.55,19.46-44.74,21.88-20.18,22.39-14.43,51.6-2.88,51.89,7.41.17,6,12.49,6,12.49l82.52-34.91S1471.33,1043.35,1440.39,1049.94Z" transform="translate(-142.42 -155.67)"/><path class="cls-21" d="M1450.55,1054.46s3-32.14-33-32.14c0,0,10.88,2.95,16.51,8.85,0,0-22.91-13.44-47.84,7.22s-9.44,72.49-17,82.34-37.1,11.81-33.49,43.62,93.69,71.67,87.91,98c0,0,35.3-51.9,10.06-75.58,0,0,12.3,11.59,13.56,25.37,0,0,3.34-26.9-13.78-35.51-15.15-7.61-27.55-35.45-26.24-40.43S1450.55,1054.46,1450.55,1054.46Z" transform="translate(-142.42 -155.67)"/><path class="cls-24" d="M1417.93,1205.7c-5.53-26.67-40.12-34.94-56.48-13.16a29,29,0,0,0-5.69,14c-3.73,30.28,44.67,153.59,51.61,164.75,12.62,20.33,86.93,90,86.93,90l13.7-8.3s-52.72-89.24-60.88-97.59C1437.69,1345.76,1428.45,1256.34,1417.93,1205.7Z" transform="translate(-142.42 -155.67)"/><path class="cls-24" d="M1489.09,1453s20-13.12,27.56-12.27,29.46,7.14,29.73,10.36-24.4,5.23-26.06,7-18.4,12.94-24.48,9.44S1489.09,1453,1489.09,1453Z" transform="translate(-142.42 -155.67)"/><path class="cls-23" d="M1349.66,1749.55l-17.86-2.62s-60-47.71-69-136.75a159.91,159.91,0,0,1-.43-27.53,4.81,4.81,0,0,0-.62-3l0,0c-1.92-2.95-6.71-10.33-13.18-20.82-6.39-10.34-17.31-29.89-29.33-51.83-21.65-39.51-46.85-86.76-55.5-101.81-27.55-48-14.27-80.21-14.27-80.21s76.85-7.6,97.91-26l7.58,11.69s16.66,73.71,15.87,74.05l2.5,7.66c13.14,40.56,28.25,91.25,36.49,132.54,4.64,23.23,7.09,43.47,5.77,57.26-.45,4.73.1,12,1.36,21C1324.39,1656,1349.66,1749.55,1349.66,1749.55Z" transform="translate(-142.42 -155.67)"/><path class="cls-16" d="M1387.12,1772.15h-74.5s-1.79-11.36,2.1-20c3.73-8.27,9-8.53.68-21.49,4.73,4.88,19.95,6.89,30.72,5.44,1.32,2.14,8.51,16.5,12.92,19.67C1363.91,1759.29,1385.62,1758.05,1387.12,1772.15Z" transform="translate(-142.42 -155.67)"/><path class="cls-4" d="M1273.33,1392.3c-6.51,35.89-21.88,95.63-54.09,114.64-21.65-39.51-46.85-86.76-55.5-101.81-27.55-48-14.27-80.21-14.27-80.21s76.85-7.6,97.91-26l7.58,11.69s16.66,73.71,15.87,74.05Z" transform="translate(-142.42 -155.67)"/><path class="cls-18" d="M1410,1189.15s10.54,11,15.35,24.08c0,0-16.81,48.25-56.08,54.31C1369.23,1267.54,1400.3,1189.13,1410,1189.15Z" transform="translate(-142.42 -155.67)"/><path class="cls-23" d="M1221.08,1330.46l.25-13.93c-27.76,3.5-95.73-33.18-95.73-33.18s-29,19.32-33,74.48c-1.95,26.93-14.22,140.81-15.58,174.81-.5,12.33-.66,21.12-.72,24.64a0,0,0,0,1,0,0,4.88,4.88,0,0,1-1.18,2.87,159.16,159.16,0,0,0-15,23.06c-42.36,78.82-20.21,185.91-20.21,185.91l9.84-2.5s35.82-111,59.23-159c4-8.15,7.59-14.48,10.61-18.15,8.8-10.69,18.08-28.85,27.23-50.7,17.29-41.31,34.08-95.82,46.06-138C1193.67,1400.88,1221.08,1330.46,1221.08,1330.46Z" transform="translate(-142.42 -155.67)"/><path class="cls-22" d="M1383.54,1237.46c-45.39-10.42-16.39-74.19-13.76-73.07,6.29-1.28,20.1-12.32,32.45-33.88l1.67,1.44,27.88,24.44s-6.45,9.51-11.87,18.82c-4.23,7.29-7.83,14.47-7.26,16.93C1414.89,1193.91,1395.64,1240.24,1383.54,1237.46Z" transform="translate(-142.42 -155.67)"/><path class="cls-24" d="M1431.78,1156.4s-6.45,9.49-11.87,18.81c-17.33-10.68-17.35-32.13-16-43.25Z" transform="translate(-142.42 -155.67)"/><path class="cls-22" d="M1432.55,1168.64s-42.08-23.42-27.1-49.4,19.65-46.5,47.15-32.65,27,26.75,24.06,36.64S1443.88,1174.06,1432.55,1168.64Z" transform="translate(-142.42 -155.67)"/><path class="cls-21" d="M1483.77,1108.08c-1.92-11.54-7.78-12.64-11.87-11.87-15.54-25.7-40.93-15.67-40.93-15.67a57.27,57.27,0,0,1-33.17,19.92s4.89,9.09,25,14.71c6.14,1.72,13.12.68,19.84-1.58a112.23,112.23,0,0,1-28.55,10.76c26.51,2.43,51.74-21.81,54.35-24.4,1.23,3.75,3.37,11.62,2.09,17.37-1.75,7.81-8.68,22-4.45,23.79C1466.09,1141.11,1486.66,1125.38,1483.77,1108.08Z" transform="translate(-142.42 -155.67)"/><path class="cls-16" d="M1099.11,1772.15h-74.5s-1.79-11.36,2.1-20c3.73-8.27,9.57-12,8.17-22,4.74,4.87,12.45,10.33,23.22,8.88,1.32,2.14,8.52,13.59,12.93,16.76C1075.9,1759.29,1097.61,1758.05,1099.11,1772.15Z" transform="translate(-142.42 -155.67)"/><path class="cls-18" d="M1388.88,1288c-9.59,3.35-23,5.18-36.81,6.67-19.59,2.14-39.81,3.6-50.41,7.83-3.86,1.54-6.45,3.44-7.25,5.88-4.6,13.81-24.84,35.12-24.84,35.12-129.72-5.91-144-60.17-144-60.17,87.29-101.49,235.07-130.87,235.07-130.87s10.55-4.48,37.14,16.65c17.74,14.1,15.4,19.52,15.4,19.52S1417.09,1278.18,1388.88,1288Z" transform="translate(-142.42 -155.67)"/><path class="cls-19" d="M1352.07,1294.69c-19.59,2.14-39.81,3.6-50.41,7.83-4.33-64.7,26.21-113.37,26.21-113.37S1347.78,1270.21,1352.07,1294.69Z" transform="translate(-142.42 -155.67)"/><path class="cls-22" d="M1372.24,1176.63s-49.1,4.86-53,36.76,47.07,161.84,54.38,173.61c13.3,21.42,91.61,94.84,91.61,94.84l14.43-8.74s-55.54-94-64.15-102.84C1402,1356.45,1388.86,1187.69,1372.24,1176.63Z" transform="translate(-142.42 -155.67)"/><path class="cls-18" d="M1320.62,1232.58c.13.73,45.31,14.76,74.39,0,0,0,6.22-67.09-28.49-63.45s-55.27,14.58-56.15,31.2S1320.62,1232.58,1320.62,1232.58Z" transform="translate(-142.42 -155.67)"/><path class="cls-22" d="M1460.73,1472.52s17.61-16.18,25.21-16.56,30.24,2.3,31,5.44-23.24,9.09-24.59,11.1-16.08,15.74-22.64,13.25S1460.73,1472.52,1460.73,1472.52Z" transform="translate(-142.42 -155.67)"/><rect class="cls-28" y="1615.37" width="2710.58" height="7.19" rx="3.07"/></svg>