<svg width="631" height="378" viewBox="0 0 631 378" fill="none" xmlns="http://www.w3.org/2000/svg">
<path d="M39.0717 377.206C39.0717 377.206 -34.353 298.314 26.6546 212.9C80.7833 137.116 143.893 142.297 190.195 173.063C209.917 186.16 266.784 174.675 315.167 97.5635C381.161 -7.59932 609.923 56.1819 568.212 217.976C548.026 296.273 629.643 299.118 588.057 377.383L39.0717 377.206Z" fill="#EBF3FA"/>
<path d="M339.003 135.385C338.979 135.795 338.965 136.01 338.965 136.01L338.767 135.402C337.697 132.098 332.468 115.798 327.708 97.6451C321.124 72.5291 315.444 43.8743 322.919 41.2325C337.082 36.2121 339.694 76.3381 339.734 105.946C339.757 120.532 339.154 132.562 339.003 135.385Z" fill="#A8D29F"/>
<path d="M352.861 102.777C347.739 114.139 343.302 123.698 340.756 129.421C339.647 131.919 338.893 133.682 338.607 134.547C338.856 133.133 339.524 129.338 340.469 123.937C341.901 115.847 343.98 104.159 346.259 91.4691C351.792 60.6222 358.527 23.8719 360.098 18.6162C362.873 9.34656 375.658 -10.3833 384.262 6.78394C389.856 17.9406 368.283 68.5337 352.861 102.777Z" fill="#A8D29F"/>
<path d="M353.892 118.987C348.603 124.578 344.157 129.105 341.673 131.607C340.316 132.979 339.545 133.743 339.545 133.743C339.545 133.743 340.9 130.854 343.207 126.239C345.386 121.88 348.414 115.989 351.955 109.529C363.555 88.3707 380.633 61.2629 391.225 62.8284C403.309 64.6082 373.067 98.7353 353.892 118.987Z" fill="#A8D29F"/>
<path d="M339.003 135.385C338.928 135.385 338.849 135.385 338.77 135.402C337.699 132.098 332.47 115.798 327.71 97.645C329.931 100.974 333.944 105.435 339.736 105.946C339.757 120.532 339.154 132.562 339.003 135.385Z" fill="#82B378"/>
<path d="M352.861 102.777C347.739 114.139 343.302 123.698 340.756 129.421C340.555 127.603 340.462 125.774 340.476 123.944C341.908 115.854 343.987 104.166 346.266 91.4761C347.153 95.9001 349.008 100.806 352.861 102.777Z" fill="#82B378"/>
<path d="M353.892 118.987C348.603 124.578 344.157 129.105 341.673 131.607C341.906 130.169 342.471 128.301 343.207 126.249C345.386 121.89 348.414 115.998 351.955 109.538C352.037 112.233 352.421 116.264 353.892 118.987Z" fill="#82B378"/>
<path d="M338.614 134.561C338.544 134.957 338.507 135.164 338.507 135.164C338.444 135.136 338.479 134.931 338.614 134.561Z" fill="#A8D29F"/>
<path d="M345.705 175.346C336.831 200.506 325.782 227.933 325.782 227.933L300.822 220.448C300.822 220.448 303.744 201.811 308.039 181.077C313.042 156.904 315.898 132.513 326.162 126.167C328.843 124.54 331.878 123.588 335.008 123.392C336.497 123.281 337.995 123.325 339.475 123.523C339.824 123.569 340.174 123.623 340.513 123.681C341.378 123.836 342.232 124.038 343.074 124.287C343.397 124.379 343.718 124.481 344.038 124.594C345.132 124.966 346.199 125.415 347.229 125.939C351.55 128.138 355.03 131.446 356.394 135.024C360.496 145.778 352.411 156.341 345.705 175.346Z" fill="#ED7D2B"/>
<path d="M333.509 206.165C326.951 226.072 325.003 247.917 327.689 271.225C328.013 273.969 329.199 276.538 331.078 278.562C332.956 280.587 335.429 281.961 338.139 282.487C341.992 282.466 349.592 275.458 353.939 266.515C355.15 264.063 356.057 261.473 356.641 258.801C360.999 238.114 369.068 213.203 379.078 200.471C389.321 187.451 403.102 171.889 422.06 161.184C423.89 160.136 466.905 128.788 466.905 128.788C471.186 124.259 466.116 119.185 466.116 119.185C466.116 119.185 462.031 122.77 449.567 129.953C437.103 137.135 415.221 128.718 415.212 128.716C412.122 127.315 408.737 126.689 405.351 126.892C401.965 127.095 398.679 128.121 395.778 129.88C383.41 137.392 372.16 146.609 362.359 157.259C349.162 171.688 339.45 188.143 333.509 206.165Z" fill="#FFB93E"/>
<path d="M356.648 258.801C361.006 238.114 369.075 213.203 379.085 200.471C389.328 187.451 403.109 171.889 422.067 161.184C422.398 160.951 435.222 151.479 421.008 142.908C407.096 134.521 350.312 197.005 353.938 266.517C355.152 264.065 356.062 261.474 356.648 258.801Z" fill="#FFA412"/>
<path d="M304.582 177.892C302.695 180.841 300.479 183.566 297.978 186.016C288.119 195.735 272.643 202.943 252.721 202.757C252.721 202.757 244.357 194.778 240.301 184.625C237.489 177.582 235.436 167.213 240.301 159.516C243.435 154.558 247.464 152.21 251.55 150.973C258.489 148.86 265.585 149.95 268.686 146.857C271.742 143.807 276.093 141.175 280.872 139.658C281.652 139.409 282.444 139.192 283.247 139.008C283.58 138.929 283.91 138.857 284.245 138.791C284.252 138.789 284.26 138.789 284.266 138.791C291.632 137.352 299.5 138.763 304.985 145.335C306.372 147.027 307.517 148.904 308.386 150.913C311.882 158.789 310.376 168.788 304.582 177.892Z" fill="#A8D29F"/>
<path d="M246.638 158.37C246.638 158.37 240.064 163.535 242.078 169.249C244.091 174.964 249.294 172.324 250.924 168.366C252.553 164.408 250.961 156.45 246.638 158.37Z" fill="#D1F2C9"/>
<path d="M304.975 145.324C306.362 147.017 307.507 148.895 308.377 150.903C311.882 158.789 316.694 179.702 310.902 188.809L303.132 195.921C293.273 205.641 272.636 202.943 252.721 202.754C252.721 202.754 244.359 194.775 240.301 184.623C240.301 184.623 264.949 194.37 288.159 174.009C298.702 164.755 303.202 154.148 304.975 145.324Z" fill="#95C38B"/>
<path d="M267.38 134.924C263.31 132.499 259.195 135.905 254.418 137.773C249.641 139.642 240.45 139.609 240.45 139.609C243.367 135.63 246.714 131.987 250.432 128.746C256.632 123.334 267.38 134.924 267.38 134.924Z" fill="#A8D29F"/>
<path d="M267.38 134.924C263.557 131.784 256.485 129.983 253.035 131.395C249.585 132.806 240.441 139.609 240.441 139.609C243.357 135.63 246.705 131.987 250.423 128.746C256.632 123.334 267.38 134.924 267.38 134.924Z" fill="#82B378"/>
<path d="M268.686 146.845C271.742 143.795 276.093 141.163 280.872 139.646C272.748 142.696 268.267 153.002 265.182 151.807C261.876 150.523 251.929 150.943 251.55 150.961C258.489 148.855 265.585 149.946 268.686 146.845Z" fill="#95C38B"/>
<path d="M284.248 138.787C283.992 138.859 283.661 138.931 283.249 139.003C283.582 138.924 283.908 138.852 284.248 138.787Z" fill="#95C38B"/>
<path d="M265.75 151.607C263.145 145.846 264.554 138.7 266.192 133.72C267.498 129.759 270.003 124.401 271.232 121.859C271.29 121.741 271.382 121.642 271.496 121.576C271.611 121.509 271.742 121.479 271.874 121.488C272.006 121.497 272.132 121.545 272.236 121.626C272.34 121.707 272.418 121.818 272.459 121.943L272.955 123.446C273.201 124.189 273.283 124.976 273.196 125.753C273.108 126.53 272.854 127.28 272.45 127.949C269.931 132.117 264.873 141.855 267.152 149.871C267.415 150.775 266.216 152.639 265.75 151.607Z" fill="#82B378"/>
<path d="M319.39 177.578L318.58 177.252C322.167 171.907 327.735 168.243 332.119 166.549C334.697 165.536 337.385 164.826 340.127 164.434C340.257 164.418 340.389 164.435 340.51 164.482C340.632 164.53 340.74 164.607 340.825 164.706L341.505 165.498C341.582 165.589 341.633 165.699 341.653 165.816C341.674 165.933 341.663 166.053 341.621 166.164C341.58 166.275 341.509 166.374 341.417 166.449C341.325 166.524 341.215 166.573 341.098 166.591C337.185 167.153 324.812 169.508 319.39 177.578Z" fill="#2B478B"/>
<path d="M304.126 179.104C308.239 168.816 314.031 171.136 321.178 173.999C328.324 176.863 334.114 179.181 330.001 189.478C327.051 196.851 318.868 200.509 311.724 197.645C304.58 194.782 301.176 186.477 304.126 179.104Z" fill="#699DEE"/>
<path d="M308.458 176.977C308.716 175.134 311.682 173.193 313.526 173.45C315.37 173.706 316.224 175.768 315.968 177.613C315.712 179.458 313.174 181.042 311.328 180.783C310.443 180.659 309.644 180.188 309.106 179.475C308.568 178.761 308.335 177.862 308.458 176.977Z" fill="#92BEFF"/>
<path d="M403.314 181.694L425.38 339.004C428.118 358.515 412.979 375.941 393.292 375.941H360.045C343.256 375.941 330.187 361.35 332.012 344.649L350.686 198.316L403.314 181.694Z" fill="#FCECDB"/>
<path d="M287.425 181.694C287.425 181.694 340.912 199.945 403.314 181.694L384.923 376.437H268.481L287.425 181.694Z" fill="#FCECDB"/>
<path d="M287.425 181.694L309.492 339.412C312.229 358.981 297.091 376.453 277.404 376.453H244.156C227.367 376.453 214.299 361.828 216.124 345.082L231.93 181.711C231.93 181.711 239.717 183.232 258.662 183.232C277.422 183.215 287.425 181.694 287.425 181.694Z" fill="#EFCBAB"/>
<path d="M386.394 199.232C386.395 198.504 386.205 197.789 385.842 197.158C385.479 196.527 384.957 196.003 384.327 195.638C383.698 195.273 382.983 195.08 382.256 195.08C381.529 195.079 380.814 195.269 380.183 195.632C379.553 195.995 379.029 196.518 378.665 197.148C378.3 197.778 378.108 198.493 378.107 199.221C378.106 199.949 378.296 200.664 378.659 201.295C379.022 201.926 379.545 202.45 380.174 202.815C381.932 216.772 379.159 228.178 372.245 235.167C365.96 241.517 356.415 243.873 344.671 241.974C334.337 240.306 327.538 228.863 323.652 219.558C320.859 212.865 319.132 206.279 318.245 202.361C318.909 201.785 319.374 201.013 319.571 200.155C319.768 199.298 319.688 198.4 319.341 197.592C318.994 196.783 318.4 196.106 317.643 195.659C316.886 195.211 316.007 195.016 315.132 195.101C314.257 195.187 313.432 195.549 312.777 196.135C312.121 196.721 311.669 197.5 311.485 198.361C311.302 199.221 311.396 200.118 311.756 200.92C312.115 201.723 312.72 202.391 313.484 202.826C315.712 213.056 323.96 243.423 343.917 246.647C346.681 247.103 349.477 247.336 352.279 247.346C361.849 247.346 369.817 244.346 375.609 238.493C383.538 230.482 386.783 217.76 384.897 202.416C385.365 202.028 385.742 201.542 386.001 200.991C386.26 200.441 386.394 199.84 386.394 199.232Z" fill="#ED7D2B"/>
<path d="M456.811 241.065C459.746 242.026 462.779 242.651 465.853 242.929C478.012 244.08 492.624 240.366 506.14 229.135C506.14 229.135 507.418 219.013 504.538 209.799C502.539 203.411 498.169 195.171 490.555 192.618C485.65 190.973 481.585 191.616 478.103 193.047C472.178 195.474 467.93 200.175 464.086 199.789C460.296 199.409 455.852 200.036 451.748 201.652C451.075 201.916 450.41 202.207 449.76 202.531C449.488 202.661 449.222 202.796 448.957 202.938H448.941C443.1 206.062 438.502 211.418 438.419 218.966C438.411 220.898 438.673 222.82 439.198 224.679C441.175 232.066 447.777 238.067 456.811 241.065Z" fill="#ED7D2B"/>
<path d="M485.58 195.386C485.58 195.386 492.955 195.253 494.759 200.278C496.563 205.303 491.539 206.405 488.222 204.604C484.905 202.803 481.548 196.483 485.58 195.386Z" fill="#FFB583"/>
<path d="M438.402 219.001C438.396 220.934 438.658 222.858 439.182 224.718C441.175 232.068 449.532 249.061 458.567 252.059C458.567 252.059 476.492 260.297 486.734 256.464C498.174 252.185 505.216 243.139 506.142 229.145C506.142 229.145 507.42 219.022 504.541 209.808C504.541 209.808 493.115 230.23 465.897 229.242C453.515 228.795 444.534 224.05 438.402 219.001Z" fill="#EA6C2D"/>
<path d="M458.324 190.92C459.756 186.992 464.47 187.024 468.779 185.638C473.088 184.252 479.362 179.099 479.362 179.099C475.151 178.003 470.832 177.378 466.484 177.235C459.228 176.991 458.324 190.92 458.324 190.92Z" fill="#A8D29F"/>
<path d="M458.324 190.92C459.19 186.638 463.025 181.461 466.172 180.504C469.319 179.546 479.362 179.106 479.362 179.106C475.151 178.01 470.832 177.385 466.484 177.242C459.228 176.991 458.324 190.92 458.324 190.92Z" fill="#82B378"/>
<path d="M464.088 199.803C460.299 199.423 455.855 200.05 451.751 201.666C459.007 199.22 467.813 203.763 469.256 201.233C470.804 198.51 477.844 193.249 478.102 193.049C472.173 195.488 467.925 200.194 464.088 199.803Z" fill="#EA6C2D"/>
<path d="M448.941 202.966C449.157 202.873 449.423 202.733 449.744 202.559C449.471 202.689 449.206 202.824 448.941 202.966Z" fill="#95C38B"/>
<path d="M468.744 201.424C467.317 196.029 462.373 191.924 458.478 189.431C455.375 187.448 450.682 185.184 448.424 184.129C448.318 184.079 448.2 184.063 448.084 184.081C447.969 184.099 447.862 184.152 447.777 184.232C447.691 184.312 447.632 184.416 447.606 184.53C447.581 184.644 447.59 184.763 447.632 184.872L448.128 186.174C448.374 186.819 448.757 187.403 449.25 187.885C449.743 188.368 450.335 188.738 450.985 188.97C455.028 190.414 463.912 194.256 466.814 201.012C467.133 201.778 468.991 202.389 468.744 201.424Z" fill="#82B378"/>
<path d="M437.883 362.298C437.883 362.298 432.464 366.363 424.148 364.215C424.148 364.215 417.451 362.687 415.982 366.03C415.982 366.03 426.253 371.251 428.853 372.679C430.811 373.755 432.855 375.456 434.3 376.768C434.572 377.013 434.89 377.201 435.237 377.32C435.583 377.438 435.95 377.485 436.315 377.457C436.68 377.428 437.035 377.326 437.359 377.156C437.683 376.986 437.969 376.752 438.2 376.467C438.651 375.91 439.168 375.249 439.736 374.48C441.319 372.334 445.009 365.394 445.009 365.394L437.883 362.298Z" fill="#233862"/>
<path d="M434.701 360.241C434.701 360.241 438.002 367.857 445.621 366.457C445.621 366.457 461.167 353.609 471.831 340.262C475.295 335.926 478.245 331.537 479.979 327.523C487.051 311.139 506.138 286.701 518.273 274.314L487.91 263.327C487.91 263.327 478.184 282.897 465.245 306.953C455.92 324.267 444.927 343.915 434.701 360.241Z" fill="#2B478B"/>
<path d="M465.252 306.941L471.838 340.255C475.302 335.919 478.252 331.53 479.986 327.516C487.058 311.132 506.145 286.694 518.28 274.307L487.91 263.327C487.91 263.327 478.184 282.897 465.252 306.941Z" fill="#233862"/>
<path d="M490.063 366.717C490.063 366.717 490.394 372.796 483.031 373.606C483.031 373.606 478.824 373.63 478.813 377.497L500.208 377.564C500.208 377.564 500.83 376.003 500.981 372.672C501.098 370.109 498.495 363.398 498.495 363.398L490.063 366.717Z" fill="#233862"/>
<path d="M497.869 263.328C497.869 263.328 484.341 278.2 475.754 304.996C471.082 319.577 484.316 356.232 486.895 368.968C486.895 368.968 495.774 369.72 501.843 367.372C501.843 367.372 502.308 341.068 498.753 320.793C496.768 309.448 516.564 296.527 525.213 276.024C531.098 262.077 523.939 262.314 515.142 261.979L497.869 263.328Z" fill="#2B478B"/>
<path d="M513.482 196.958C521.006 201.21 536.414 197.289 536.414 197.289C536.414 197.289 530.157 190.13 532.999 178.603L527.091 181.606L520.745 184.83C520.408 186.714 520.175 188.614 520.047 190.524C519.975 191.455 519.91 192.518 519.863 193.666C517.553 194.363 515.39 195.479 513.482 196.958Z" fill="#FFB07B"/>
<path d="M485.887 262.547C485.887 263.87 487.412 264.504 487.735 264.569C490.762 265.124 499.245 268.422 506.88 269.18C513.308 269.853 519.276 269.215 525.834 267.896C526.702 267.721 528.739 267.171 528.884 266.34C529.065 265.429 554.176 215.108 534.657 193.494C534.191 192.986 530.343 193.899 526.821 194.738C523.85 195.44 520.732 195.185 517.915 194.009L514.604 195.749C510.544 198.011 502.867 206.053 501.968 212.362C501.503 215.57 499.678 217.953 499.147 220.767C498.951 221.814 498.75 222.834 498.544 223.826C498.144 225.775 497.731 227.631 497.308 229.394C496.16 234.165 494.947 238.274 493.758 241.822C492.491 245.59 491.248 248.725 490.14 251.346C488.699 254.745 487.484 257.287 486.725 259.232C486.204 260.602 485.887 261.676 485.887 262.547Z" fill="#2A4E96"/>
<path d="M486.732 259.232C522.179 242.519 534.454 210.426 534.454 210.426C534.454 210.426 505.656 221.058 498.551 223.826C498.151 225.775 497.739 227.631 497.315 229.394C496.167 234.165 494.954 238.274 493.765 241.822C492.498 245.59 491.255 248.725 490.147 251.346C488.706 254.745 487.491 257.287 486.732 259.232Z" fill="#1E3D70"/>
<path d="M462.692 250.4C462.692 250.4 457.764 248.378 456.639 248.537C455.515 248.695 452.374 247.915 452.551 248.942C452.675 249.641 456.718 250.398 456.718 250.398C456.718 250.398 452.202 249.38 452.551 250.438C452.784 251.164 453.75 254.06 455.245 255.006C457.033 256.138 460.266 255.591 464.058 255.043C471.012 254.037 462.692 250.4 462.692 250.4Z" fill="#FFB07B"/>
<path d="M463.472 253.881C462.338 250.924 461.821 249.585 461.821 249.585C461.821 249.585 484.968 230.715 487.326 229.084C488.932 227.98 504.932 216.012 512.733 206.684C514.631 204.414 517.11 202.702 519.906 201.733C522.701 200.764 525.707 200.573 528.602 201.182L533.46 202.2C539.329 203.432 541.233 210.864 536.682 214.768C523.865 225.764 502.245 238.531 498.216 241.173C488.206 247.758 466.077 256.986 466.077 256.986C466.077 256.986 464.361 256.203 463.472 253.881Z" fill="#2A4E96"/>
<path d="M520.049 190.524C527.45 190.938 532.262 184.825 532.262 184.825C532.262 184.825 528.916 182.962 527.091 181.606L520.745 184.83C520.409 186.714 520.177 188.614 520.049 190.524Z" fill="#EA8E50"/>
<path d="M516.895 182.92C516.895 182.92 528.108 190.973 533.011 183.907C537.914 176.842 542.665 173.123 535.714 167.684C528.763 162.244 525.485 163.956 523.276 165.922C521.067 167.889 514.106 180.644 516.895 182.92Z" fill="#FFB07B"/>
<path d="M522.091 159.542C522.317 157.948 522.757 156.392 523.397 154.915C523.397 154.915 524.095 157.832 529.428 157.429C534.762 157.026 543.198 157.953 546.012 164.026C546.189 164.413 546.349 164.81 546.492 165.219C547.002 163.872 547.125 161.855 547.125 161.855C548.136 164.469 547.125 167.74 547.125 167.74C547.142 167.835 547.153 167.931 547.167 168.026C548.343 169.021 549.33 172.115 549.33 172.115C548.976 171.253 548.11 170.689 547.339 170.342C547.363 175.069 545.447 179.691 542.085 181.058C537.169 183.071 537.208 181.536 532.264 184.818C532.264 184.818 530.937 183.171 531.842 182.065C532.748 180.958 536.163 179.348 534.254 177.738C532.345 176.129 531.64 177.941 530.937 176.835C530.234 175.728 533.751 172.508 529.228 169.491C524.705 166.475 521.688 162.256 522.091 159.542Z" fill="#233862"/>
<path d="M191.324 26.6349C191.306 26.1038 190.894 20.3658 182.162 20.0653C182.162 20.0653 186.457 20.5778 187.197 22.4672C187.197 22.4672 184.273 20.1375 181.892 20.883C179.51 21.6285 178.113 25.8102 178.099 27.1731C178.085 28.5359 179.408 32.9739 180.919 33.349C181.522 33.4713 182.145 33.4713 182.748 33.349C182.32 34.0245 181.931 34.7246 181.584 35.4457C178.092 42.6024 181.691 49.5983 184.643 48.8272C186.534 48.331 187.069 51.5622 187.069 51.5622L205.459 36.6687C205.459 36.6687 198.692 22.7001 191.324 26.6349Z" fill="#2C3A64"/>
<path d="M197.726 237.52L193.818 238.976C193.818 238.976 176.861 215.446 174.773 194.729C174.4 191.031 174.524 187.448 175.329 184.143C175.329 184.143 175.164 183.194 174.864 181.519C174.729 180.739 174.563 179.798 174.375 178.724C173.823 175.563 173.064 171.236 172.198 166.312C170.203 154.978 167.617 140.49 165.61 129.838L166.662 129.501L178.044 125.824L180.397 118.349L188.873 116.115C188.873 116.115 190.791 119.821 192.472 137.326C192.784 139.623 193.068 142.155 193.282 144.902C194.062 155.127 193.791 165.405 192.474 175.574C192.085 178.617 191.589 181.754 190.987 184.986C190.54 187.353 190.472 190.577 190.661 194.281C191.515 211.211 197.726 237.52 197.726 237.52Z" fill="#2B478B"/>
<path d="M193.282 144.902L174.878 181.519C174.743 180.739 174.577 179.798 174.389 178.724C173.837 175.563 173.078 171.236 172.212 166.312C170.217 154.978 167.631 140.49 165.624 129.838L166.676 129.501L178.058 125.824L180.411 118.349L188.887 116.115C188.887 116.115 190.791 119.821 192.472 137.326C192.784 139.623 193.068 142.155 193.282 144.902Z" fill="#233862"/>
<path d="M241.421 116.138C239.885 117.498 235.806 112.827 235.245 112.205C235.229 112.174 235.21 112.144 235.187 112.117L236.428 108.657C236.428 108.657 241.782 108.452 242.662 109.338C243.542 110.223 243.104 114.696 241.421 116.138Z" fill="#FFB27D"/>
<path d="M236.418 108.657L235.885 112.236C235.885 112.236 235.652 112.236 235.236 112.205C233.934 112.117 230.773 111.94 227.2 111.555C221.822 111.024 215.439 110.076 212.899 108.511C209.028 106.146 202.675 98.9007 198.539 91.6555C198.429 91.4851 198.33 91.3077 198.243 91.1243C196.087 87.2804 194.579 83.4668 194.462 80.4079C194.376 78.7784 194.552 77.1457 194.982 75.5716C195.413 73.9814 196.157 72.4932 197.17 71.1942C197.281 71.0072 197.42 70.8383 197.582 70.6933C198.364 69.7308 199.316 68.9193 200.389 68.2984C201.088 68.0002 201.867 68.3566 202.664 69.214V69.2442C203.476 70.1525 204.162 71.1666 204.703 72.2588C204.733 72.2891 204.763 72.3194 204.763 72.3473C204.91 72.6153 205.059 72.9088 205.229 73.2349C205.279 73.2971 205.318 73.3672 205.345 73.4423C205.671 74.1225 205.996 74.8323 206.321 75.5716C209.955 83.4924 213.826 95.4994 217.048 99.0778C218.445 100.615 224.788 103.632 229.851 105.878C233.471 107.474 236.418 108.657 236.418 108.657Z" fill="#FFB27D"/>
<path d="M198.823 76.4615C196.581 77.5005 193.873 78.2087 190.6 78.3881C178.33 79.0591 175.543 68.2937 175.036 61.1487C176.388 60.681 177.822 60.4994 179.247 60.6152C180.118 60.6641 181.026 60.7527 181.775 60.8482C183.277 60.0631 185.965 56.2518 187.532 49.8755L188.061 50.1201L196.907 54.2855C196.907 54.2855 195.976 57.1697 195.277 59.9303C194.737 62.0899 194.346 64.1749 194.672 64.7597C195.37 65.0439 195.787 65.2256 195.787 65.2256C197.154 68.8656 198.17 72.628 198.823 76.4615Z" fill="#FFB27D"/>
<path d="M201.891 84.5175C201.798 84.7644 201.698 85.002 201.586 85.249C198.473 91.9467 192.723 119.695 192.723 119.695C193.543 124.685 155.258 118.717 155.158 114.174C153.81 109.359 159.944 101.619 163.401 97.7359C164.929 96.0231 165.883 93.8751 166.129 91.5926C166.809 85.1534 166.551 79.1196 166.609 75.4504C167.284 74.9496 167.938 74.4883 168.546 74.0527C169.389 73.4704 170.179 72.8147 170.906 72.0934C171.572 71.3945 171.989 70.6747 172.038 69.8639C172.07 69.2424 172.053 68.6192 171.989 68.0002C171.961 67.702 171.921 67.4062 171.877 67.1103C171.53 65.0638 170.933 63.0678 170.098 61.1674C173.392 59.8325 179.247 60.6269 179.247 60.6269C179.247 60.6269 179.247 60.953 179.247 61.4865C179.229 63.6275 179.247 69.1231 179.932 70.1621C180.791 71.4574 196.476 77.1324 197.305 75.3736C198.133 73.6147 195.885 65.5471 195.803 65.2396C201.057 67.3036 202.934 69.0369 202.934 69.0369C199.756 71.0684 204.34 78.0201 201.891 84.5175Z" fill="#F99746"/>
<path d="M196.916 54.2855C196.916 54.2855 195.985 57.1673 195.286 59.9279C190.111 58.4836 188.535 53.0392 188.07 50.1201L196.916 54.2855Z" fill="#ED985F"/>
<path d="M198.008 57.3374C198.008 57.3374 185.626 54.4696 187.532 46.7794C189.439 39.0892 189.12 33.54 197.107 35.0449C205.094 36.5499 205.897 39.865 205.885 42.586C205.874 45.3071 201.267 57.8849 198.008 57.3374Z" fill="#FFB27D"/>
<path d="M206.575 38.2203C205.243 35.4247 203.676 35.5831 202.696 36.077C196.876 30.6885 191.171 35.0892 191.171 35.0892C188.975 40.4008 184.215 42.5721 184.215 42.5721C184.215 42.5721 186.117 44.5197 191.629 44.4777C193.315 44.4637 195.007 43.6903 196.548 42.614C194.626 44.5101 192.454 46.1349 190.093 47.4434C196.995 46.1225 201.623 38.1248 202.098 37.2768C202.682 38.1411 203.802 39.9792 203.895 41.533C204.023 43.6437 203.297 47.7416 204.505 47.8977C204.503 47.8977 208.572 42.3997 206.575 38.2203Z" fill="#2C3A64"/>
<path d="M202.922 69.0136C202.922 69.0136 205.904 74.218 206.349 75.5576C206.349 75.5576 202.482 75.4085 200.922 78.3858C200.922 78.3858 200.548 69.7148 202.922 69.0136Z" fill="#F99746"/>
<path d="M182.411 110.372C174.859 110.293 168.464 102.451 164.558 96.175C165.417 94.7843 165.952 93.2182 166.125 91.5926C166.804 85.1534 166.546 79.1196 166.604 75.4504C167.279 74.9495 167.933 74.4883 168.541 74.0526C169.384 73.4703 170.174 72.8147 170.902 72.0934C177.089 82.5465 192.654 110.481 182.411 110.372Z" fill="#ED7D2B"/>
<path d="M167.722 244.08H148.058C148.058 244.08 147.592 241.079 148.614 238.806C149.596 236.623 151.14 235.63 150.77 232.981C152.02 234.267 154.057 235.71 156.899 235.327C157.248 235.894 159.148 238.917 160.312 239.754C161.597 240.686 167.326 240.355 167.722 244.08Z" fill="#233862"/>
<path d="M209.943 244.08H190.279C190.279 244.08 189.543 240.942 190.835 238.806C191.978 236.916 191.534 235.84 190.693 234.275C191.737 234.728 192.869 234.941 194.006 234.899C194.986 234.843 196.022 234.398 196.93 233.871C197.775 234.836 201.4 238.945 202.533 239.761C203.828 240.686 209.547 240.355 209.943 244.08Z" fill="#233862"/>
<path d="M229.6 103.553L228.636 103.32C231.832 96.7458 237.517 91.7487 242.18 89.1511C244.919 87.6033 247.829 86.3813 250.851 85.5099C250.996 85.4696 251.149 85.4662 251.295 85.5C251.441 85.5338 251.577 85.6036 251.69 85.7032L252.579 86.4883C252.678 86.5787 252.752 86.694 252.793 86.8223C252.834 86.9506 252.84 87.0875 252.81 87.2189C252.781 87.3503 252.718 87.4715 252.626 87.5703C252.535 87.6691 252.419 87.7419 252.29 87.7813C247.972 89.0276 234.426 93.624 229.6 103.553Z" fill="#2B478B"/>
<path d="M212.674 107.672C215.684 95.4552 222.563 97.1535 231.048 99.2479C239.533 101.342 246.412 103.041 243.4 115.257C241.242 124.012 232.615 129.412 224.129 127.318C215.644 125.223 210.513 116.429 212.674 107.672Z" fill="#F46C0F"/>
<path d="M217.211 104.599C217.211 102.486 220.237 99.8349 222.355 99.8349C224.474 99.8349 225.754 102.018 225.754 104.131C225.754 106.244 223.149 108.427 221.038 108.427C220.535 108.427 220.038 108.328 219.573 108.136C219.109 107.944 218.687 107.662 218.332 107.306C217.976 106.951 217.694 106.529 217.502 106.064C217.31 105.6 217.211 105.102 217.211 104.599Z" fill="#FF9045"/>
<path d="M210.958 114.484L209.924 118.267C209.924 118.267 208.623 118.034 206.556 117.647C205.934 117.529 205.581 117.44 205.581 117.44C203.925 117.114 201.947 116.671 199.789 116.198H199.761C196.066 115.311 191.93 114.246 188.442 113.063C185.991 112.205 183.863 111.29 182.415 110.374C182.272 110.284 182.134 110.185 182.003 110.076C178.546 107.565 174.438 100.173 171.248 92.2472C170.804 91.1546 170.392 90.0597 169.977 88.9857C168.584 85.3269 167.459 81.5717 166.609 77.7498C166.192 75.9895 165.925 74.197 165.81 72.3916C165.773 71.8893 165.763 71.3853 165.782 70.882C165.841 62.3089 170.096 61.1254 170.096 61.1254C170.185 61.0951 170.273 61.0672 170.392 61.0369C171.13 60.9181 171.898 61.4213 172.696 62.3974C173.7 63.6088 174.764 65.5913 175.858 67.9885C177.541 71.8045 179.315 76.7434 180.967 81.6496C181.885 84.3404 182.772 87.0311 183.656 89.5145C184.159 91.0241 184.662 92.4429 185.134 93.7452C186.049 96.2286 186.878 98.2391 187.616 99.5087C188.082 100.338 189.448 101.491 191.25 102.791C194.383 105.07 198.962 107.819 202.95 110.064C204.605 111.013 206.172 111.87 207.471 112.578C209.568 113.743 210.958 114.484 210.958 114.484Z" fill="#FFB27D"/>
<path d="M175.846 68.0142C170.159 66.444 165.771 70.8983 165.771 70.8983C165.843 62.3368 170.101 61.165 170.101 61.165C171.814 60.4451 173.797 63.4154 175.846 68.0142Z" fill="#F99746"/>
<path d="M210.958 114.484C210.958 114.484 212.82 114.523 213.863 113.883C214.906 113.242 217.886 112.366 219.217 112.511C219.217 112.511 219.713 112.716 219.536 113.181C219.359 113.647 217.176 114.027 217.176 114.903C217.176 114.903 219.916 114.815 220.733 114.465C221.55 114.116 224.69 114.931 225.307 115.283C225.924 115.635 221.324 118.423 219.285 119.541C217.246 120.66 209.924 118.267 209.924 118.267L210.958 114.484Z" fill="#FFB27D"/>
<path d="M209.568 376.642C209.225 376.623 208.9 376.483 208.651 376.246C208.403 376.009 208.247 375.691 208.211 375.349L201.558 331.568L191.988 268.6L189.311 250.992L196.127 250.759L197.309 260.998L205.613 332.828L210.537 375.405C210.613 376.055 210.16 376.642 209.568 376.642Z" fill="#FCECDB"/>
<path d="M139.81 250.992L136.784 270.948L128.403 326.07L120.912 375.347C120.878 375.689 120.723 376.007 120.474 376.245C120.226 376.482 119.9 376.622 119.557 376.639C118.966 376.639 118.51 376.052 118.589 375.393L125.049 319.53L131.956 259.779L132.998 250.764L139.81 250.992Z" fill="#FCECDB"/>
<path d="M136.784 270.948C137.182 262.372 131.958 259.782 131.958 259.782L133.001 250.766L139.819 250.999L136.784 270.948Z" fill="#EFCBAB"/>
<path d="M197.309 260.998C192.886 263.26 191.985 268.609 191.985 268.609L189.308 251.001L196.125 250.768L197.309 260.998Z" fill="#EFCBAB"/>
<path d="M216.466 244.08H112.657C111.065 244.08 109.775 245.371 109.775 246.964V248.108C109.775 249.701 111.065 250.992 112.657 250.992H216.466C218.057 250.992 219.348 249.701 219.348 248.108V246.964C219.348 245.371 218.057 244.08 216.466 244.08Z" fill="#FCECDB"/>
<path d="M554.256 376.504H529.061C527.71 375.358 529.992 372.756 532.382 372.581C533.418 372.504 534.729 372.721 536.228 373.047C536.575 368.439 538.556 347.722 546.005 348.556C554.386 349.487 546.005 357.678 543.633 362.533C541.878 366.126 540.025 371.277 539.178 373.716C539.857 373.863 540.574 374.007 541.284 374.14C542.395 370.722 546.534 359.23 551.795 359.899C557.973 360.684 555.489 365.292 551.111 368.027C547.898 370.04 543.955 372.898 542.081 374.28C543.707 374.562 545.356 374.694 547.006 374.673C551.332 374.547 553.439 375.822 554.256 376.504Z" fill="#82B378"/>
<path d="M68.9947 376.504H94.1828C95.5306 375.358 93.2516 372.756 90.8608 372.581C89.8249 372.504 88.5143 372.721 87.0151 373.047C86.6683 368.439 84.6872 347.722 77.2262 348.556C68.8457 349.487 77.2262 357.678 79.5984 362.533C81.356 366.126 83.209 371.277 84.0563 373.716C83.3743 373.863 82.6596 374.007 81.9612 374.14C80.8485 370.722 76.7118 359.23 71.4507 359.899C65.2724 360.684 67.7563 365.292 72.1351 368.027C75.3453 370.04 79.2911 372.898 81.1651 374.28C79.5387 374.562 77.8898 374.694 76.2392 374.673C71.9186 374.547 69.8118 375.822 68.9947 376.504Z" fill="#82B378"/>
<path d="M301.386 338.154C302.466 343.577 303.791 348.271 305.329 352.33C317.258 383.78 342.124 377.003 366.398 377.003C393.802 377.003 393.748 358.634 393.748 333.802C393.748 308.97 378.568 289.24 351.166 289.24C323.764 289.24 296.541 313.802 301.386 338.154Z" fill="#FFB93E"/>
<path d="M410.425 341.874C410.598 316.714 392.319 296.506 367.913 289.799C343.004 282.952 322.328 299.698 322.367 324.096C322.407 348.604 343.516 372.879 368.777 376.141C393.208 379.298 410.26 366.342 410.425 341.874Z" fill="#FFA412"/>
<path d="M408.233 341.266C408.395 317.364 391.027 298.167 367.838 291.787C344.175 285.282 324.525 301.191 324.56 324.374C324.597 347.67 344.657 370.734 368.658 373.828C391.872 376.826 408.074 364.516 408.233 341.266Z" fill="#FFDA9F"/>
<path d="M366.002 327.267L372.788 301.706C373.293 299.805 371.812 297.562 369.761 297.114C363.211 295.645 356.444 295.421 349.811 296.453C347.895 296.749 347.129 298.899 348.258 300.805L363.918 327.223C364.468 328.169 365.755 328.197 366.002 327.267Z" fill="#FFB93E"/>
<path d="M371.88 335.113L397.326 351.03C399.219 352.213 401.381 351.482 401.749 349.525C402.348 346.409 402.655 343.244 402.667 340.071C402.659 336.46 402.347 332.857 401.735 329.299C401.377 327.23 399.23 325.692 397.389 326.182L371.852 332.984C370.939 333.217 370.953 334.536 371.88 335.113Z" fill="#FFB93E"/>
<path d="M370.308 330.382L395.476 323.682C397.338 323.183 397.938 320.919 396.681 319.039C394.711 316.082 392.524 313.275 390.14 310.64C387.505 307.76 384.667 305.072 381.648 302.598C379.925 301.201 377.658 301.599 377.055 303.421L368.711 328.67C368.411 329.573 369.396 330.626 370.308 330.382Z" fill="#FFB93E"/>
<path d="M367.887 337.48L375.67 365.599C376.249 367.696 378.517 369.063 380.325 368.409C383.121 367.4 385.803 366.1 388.326 364.53C391.05 362.802 393.583 360.791 395.883 358.529C397.196 357.233 396.688 354.766 394.861 353.532L369.517 336.413C368.6 335.805 367.606 336.458 367.887 337.48Z" fill="#FFB93E"/>
<path d="M361.709 328.036L344.715 302.838C343.449 300.975 340.991 300.451 339.694 301.795C337.635 303.904 335.808 306.229 334.247 308.73C332.521 311.542 331.085 314.521 329.959 317.622C329.307 319.419 330.657 321.697 332.671 322.237L360.715 329.716C361.711 329.984 362.328 328.952 361.709 328.036Z" fill="#FFB93E"/>
<path d="M360.701 332.02L332.999 327.2C330.939 326.841 329.447 328.497 329.947 330.596C330.737 333.928 331.791 337.192 333.099 340.357C334.587 343.905 336.336 347.338 338.332 350.627C339.496 352.523 341.901 353.124 343.221 351.845L361.595 334.121C362.263 333.485 361.707 332.194 360.701 332.02Z" fill="#FFB93E"/>
<path d="M363.19 336.318L348.251 356.765C347.141 358.286 347.926 360.761 349.867 361.837C352.866 363.508 355.992 364.941 359.216 366.121C362.662 367.363 366.205 368.319 369.808 368.977C371.836 369.345 373.3 367.689 372.75 365.627L365.287 337.047C365.022 336.013 363.732 335.577 363.19 336.318Z" fill="#FFB93E"/>
<path d="M302.156 208.334C302.268 207.868 292.251 212.867 291.741 213.431C287.044 218.647 288.382 225.452 291.071 225.52C292.796 225.559 292.468 228.429 292.468 228.429L311.678 220.297C311.678 220.297 309.359 206.799 302.156 208.334Z" fill="#2C3A64"/>
<path d="M304.522 209.387C304.522 209.387 305.22 201.899 296.839 201.899C296.839 201.899 299.372 202.587 300.683 203.961C300.683 203.961 295.35 200.83 289.546 205.643C283.743 210.456 287.348 222.531 285.589 224.825C283.829 227.12 276.952 227.577 277.792 234.987C278.633 242.398 299.603 251.684 298.257 257.818C298.257 257.818 306.475 245.727 300.599 240.21C300.599 240.21 303.462 242.91 303.756 246.121C303.756 246.121 304.533 239.854 300.548 237.848C297.021 236.075 294.134 229.59 294.439 228.429C294.744 227.269 304.522 209.387 304.522 209.387Z" fill="#2C3A64"/>
<path d="M296.928 244.62C295.641 238.407 287.588 236.481 283.78 241.555C283.058 242.506 282.601 243.631 282.455 244.816C281.587 251.87 292.854 280.597 294.47 283.197C297.407 287.933 314.706 304.164 314.706 304.164L317.895 302.23C317.895 302.23 305.623 281.441 303.723 279.495C301.528 277.25 299.377 256.418 296.928 244.62Z" fill="#ED985F"/>
<path d="M313.493 302.233C313.493 302.233 318.149 299.176 319.909 299.374C321.669 299.572 326.767 301.038 326.83 301.788C326.893 302.538 321.15 303.006 320.763 303.418C320.377 303.831 316.48 306.433 315.065 305.618C313.649 304.802 313.493 302.233 313.493 302.233Z" fill="#ED985F"/>
<path d="M281.035 371.319L276.878 370.708C276.878 370.708 262.91 359.593 260.815 338.85C260.597 336.719 260.564 334.573 260.715 332.437C260.744 332.194 260.693 331.949 260.57 331.738C260.124 331.051 259.008 329.331 257.502 326.887C256.015 324.479 253.473 319.924 250.675 314.813C245.635 305.608 239.768 294.601 237.755 291.095C231.341 279.912 234.433 272.409 234.433 272.409C234.433 272.409 252.323 270.638 257.225 266.351L258.99 269.075C258.99 269.075 262.868 286.247 262.684 286.326L263.266 288.11C266.325 297.559 269.843 309.368 271.761 318.988C272.841 324.399 273.411 329.115 273.104 332.327C272.999 333.429 273.127 335.123 273.421 337.219C275.153 349.525 281.035 371.319 281.035 371.319Z" fill="#F99746"/>
<path d="M289.756 376.584H272.413C272.413 376.584 271.996 373.937 272.901 371.924C273.77 369.998 274.997 369.937 273.06 366.918C274.161 368.055 277.704 368.523 280.211 368.185C280.518 368.684 282.192 372.029 283.219 372.768C284.353 373.588 289.406 373.299 289.756 376.584Z" fill="#233862"/>
<path d="M263.266 288.092C261.751 296.453 258.173 310.37 250.675 314.799C245.635 305.594 239.768 294.587 237.755 291.081C231.341 279.898 234.433 272.395 234.433 272.395C234.433 272.395 252.323 270.624 257.225 266.337L258.99 269.061C258.99 269.061 262.868 286.233 262.684 286.312L263.266 288.092Z" fill="#ED7D2B"/>
<path d="M295.082 240.765C295.082 240.765 297.535 243.327 298.655 246.375C298.655 246.375 294.742 257.615 285.6 259.027C285.591 259.027 292.824 240.76 295.082 240.765Z" fill="#2A4E96"/>
<path d="M288.922 252.019C278.356 249.592 285.107 234.736 285.719 234.997C287.183 234.698 290.398 232.127 293.273 227.104L293.662 227.439L300.152 233.133C300.152 233.133 298.651 235.348 297.389 237.517C296.404 239.216 295.566 240.888 295.699 241.461C296.22 241.874 291.739 252.667 288.922 252.019Z" fill="#FFB27D"/>
<path d="M300.152 233.135C300.152 233.135 298.651 235.346 297.389 237.517C293.355 235.029 293.35 230.032 293.664 227.442L300.152 233.135Z" fill="#ED985F"/>
<path d="M300.331 235.987C300.331 235.987 290.535 230.531 294.023 224.478C297.51 218.426 298.597 213.645 304.999 216.872C311.4 220.099 311.284 223.104 310.6 225.408C309.915 227.712 302.969 237.249 300.331 235.987Z" fill="#FFB27D"/>
<path d="M312.255 221.878C311.808 219.19 310.444 218.934 309.492 219.113C305.874 213.126 299.963 215.463 299.963 215.463C298.005 217.859 295.276 219.5 292.242 220.103C292.242 220.103 293.38 222.221 298.062 223.53C299.491 223.931 301.116 223.689 302.68 223.162C300.589 224.296 298.353 225.14 296.034 225.669C302.205 226.235 308.079 220.588 308.686 219.984C308.973 220.858 309.471 222.691 309.173 224.031C308.765 225.85 307.152 229.156 308.137 229.573C308.139 229.573 312.928 225.909 312.255 221.878Z" fill="#2C3A64"/>
<path d="M222.709 376.584H205.366C205.366 376.584 204.95 373.937 205.855 371.924C206.724 369.998 208.083 369.129 207.757 366.799C208.861 367.934 210.655 369.206 213.163 368.868C213.47 369.366 215.146 372.034 216.173 372.772C217.306 373.588 222.36 373.299 222.709 376.584Z" fill="#233862"/>
<path d="M290.165 263.793C287.933 264.574 284.811 265 281.596 265.347C277.036 265.846 272.329 266.186 269.861 267.171C268.963 267.53 268.36 267.973 268.173 268.541C267.103 271.759 262.391 276.723 262.391 276.723C232.193 275.346 228.869 262.706 228.869 262.706C249.189 239.062 283.591 232.217 283.591 232.217C283.591 232.217 286.047 231.174 292.237 236.096C296.367 239.381 295.822 240.644 295.822 240.644C295.822 240.644 296.732 261.506 290.165 263.793Z" fill="#2A4E96"/>
<path d="M281.596 265.352C277.036 265.851 272.329 266.191 269.861 267.176C268.853 252.103 275.963 240.765 275.963 240.765C275.963 240.765 280.597 259.649 281.596 265.352Z" fill="#1E3D70"/>
<path d="M286.292 237.848C286.292 237.848 274.862 238.98 273.954 246.412C273.046 253.844 284.911 284.115 286.613 286.857C289.709 291.847 307.939 308.951 307.939 308.951L311.298 306.915C311.298 306.915 298.369 285.017 296.365 282.957C293.22 279.74 290.161 240.425 286.292 237.848Z" fill="#FFB27D"/>
<path d="M274.275 250.883C274.305 251.053 284.823 254.321 291.592 250.883C291.592 250.883 293.04 235.253 284.96 236.101C276.88 236.949 272.094 239.498 271.889 243.369C271.684 247.241 274.275 250.883 274.275 250.883Z" fill="#2A4E96"/>
<path d="M306.891 306.78C306.891 306.78 310.991 303.011 312.76 302.922C314.529 302.834 319.8 303.458 319.977 304.19C320.153 304.921 314.566 306.307 314.252 306.776C313.938 307.244 310.509 310.442 308.982 309.862C307.455 309.282 306.891 306.78 306.891 306.78Z" fill="#FFB27D"/>
<path d="M630.285 376.325H0.71467C0.319969 376.325 0 376.645 0 377.04V377.285C0 377.68 0.319969 378 0.71467 378H630.285C630.68 378 631 377.68 631 377.285V377.04C631 376.645 630.68 376.325 630.285 376.325Z" fill="#2E3552"/>
</svg>
